<svg width="25" height="24" viewBox="0 0 25 24" fill="none" xmlns="http://www.w3.org/2000/svg">
<path d="M23.5515 14.885C23.5422 14.8361 23.5407 14.7845 23.5218 14.7399C23.5217 14.7399 23.5218 14.74 23.5218 14.7399L19.2948 4.77509C19.2904 4.7645 19.2812 4.75802 19.2763 4.74777C19.2578 4.70934 19.232 4.67807 19.2071 4.64416C19.1864 4.61565 19.1723 4.58365 19.1472 4.55841C19.1368 4.54787 19.1249 4.54043 19.1138 4.53069C19.0844 4.5046 19.0499 4.48792 19.0165 4.46713C18.9988 4.45615 18.9828 4.4424 18.9642 4.43305C18.9507 4.42629 18.942 4.41418 18.928 4.4082C18.9271 4.40781 18.9262 4.40798 18.9253 4.40764C18.913 4.40246 18.8999 4.40127 18.8873 4.39677C18.8521 4.38426 18.8147 4.38212 18.7774 4.37541C18.7259 4.36617 18.676 4.35637 18.6229 4.35919C18.6121 4.35969 18.6025 4.35491 18.5917 4.35592L14.1587 4.7796C13.8604 4.16031 13.232 3.72852 12.4998 3.72852C11.6437 3.72852 10.9287 4.31704 10.7207 5.10845L6.27622 5.5332C6.24337 5.53641 6.21667 5.55332 6.18545 5.56081C6.1494 5.56937 6.1121 5.57084 6.07796 5.58498C6.07441 5.58644 6.07063 5.58577 6.06708 5.58729C6.05762 5.5914 6.05193 5.5998 6.04269 5.6043C6.00494 5.62267 5.97429 5.64825 5.94088 5.6727C5.91164 5.69389 5.88003 5.7096 5.85429 5.73541C5.84448 5.74527 5.8366 5.7558 5.82741 5.76617C5.79902 5.79817 5.78099 5.83581 5.7589 5.87254C5.74285 5.89908 5.71918 5.91863 5.70651 5.94787L1.47964 15.7105C1.47925 15.7114 1.47942 15.7125 1.47902 15.7134C1.46375 15.749 1.46364 15.7905 1.45451 15.8288C1.44235 15.8805 1.42341 15.9316 1.4233 15.9833C1.4233 15.9841 1.42285 15.9847 1.42285 15.9854C1.42285 18.6997 3.62958 20.9082 6.34202 20.9082C9.05491 20.9082 11.2616 18.6997 11.2616 15.9854C11.2616 15.9847 11.2612 15.9841 11.2612 15.9833C11.2611 15.9316 11.2422 15.8805 11.23 15.8288C11.2209 15.7905 11.2207 15.749 11.2055 15.7134C11.2051 15.7125 11.2052 15.7114 11.2049 15.7105L7.35598 6.82182L10.9024 6.48287C11.2205 7.03996 11.8134 7.42082 12.4998 7.42082C13.3108 7.42082 13.9934 6.89179 14.2407 6.16354L17.566 5.84572L13.7929 14.7396C13.7928 14.7397 13.7929 14.7396 13.7929 14.7396C13.774 14.7843 13.7724 14.8361 13.7631 14.885C13.7554 14.9269 13.738 14.9682 13.738 15.0099C13.738 15.0098 13.738 15.01 13.738 15.0099C13.738 17.7241 15.9446 19.9319 18.6575 19.9319C21.37 19.9319 23.5767 17.7243 23.5767 15.0101C23.5767 15.01 23.5767 15.0101 23.5767 15.0101C23.5767 14.9684 23.5592 14.9269 23.5515 14.885ZM21.8387 14.3178H15.4759L18.6575 6.81832L21.8387 14.3178ZM6.34208 7.96552L9.51499 15.2931H3.16945L6.34208 7.96552ZM6.34202 19.5236C4.62996 19.5236 3.20016 18.2979 2.87744 16.6777H9.80705C9.48434 18.2979 8.05448 19.5236 6.34202 19.5236ZM12.4998 6.03621C12.2451 6.03621 12.0382 5.82888 12.0382 5.57467C12.0382 5.32046 12.2451 5.11313 12.4998 5.11313C12.7544 5.11313 12.9613 5.32046 12.9613 5.57467C12.9613 5.82888 12.7544 6.03621 12.4998 6.03621ZM18.6575 18.5473C16.9451 18.5473 15.5152 17.3224 15.1925 15.7024H22.1221C21.7994 17.3224 20.3696 18.5473 18.6575 18.5473Z" fill="white"/>
</svg>
