<svg width="30" height="30" viewBox="0 0 30 30" fill="none" xmlns="http://www.w3.org/2000/svg">
<path fill-rule="evenodd" clip-rule="evenodd" d="M13.125 4.6875C8.4651 4.6875 4.6875 8.4651 4.6875 13.125C4.6875 17.7849 8.4651 21.5625 13.125 21.5625C15.4552 21.5625 17.5633 20.6191 19.0912 19.0912C20.6191 17.5633 21.5625 15.4552 21.5625 13.125C21.5625 8.4651 17.7849 4.6875 13.125 4.6875ZM2.8125 13.125C2.8125 7.42956 7.42956 2.8125 13.125 2.8125C18.8204 2.8125 23.4375 7.42956 23.4375 13.125C23.4375 15.6348 22.54 17.9363 21.0499 19.7241L26.9129 25.5871C27.279 25.9532 27.279 26.5468 26.9129 26.9129C26.5468 27.279 25.9532 27.279 25.5871 26.9129L19.7241 21.0499C17.9363 22.54 15.6348 23.4375 13.125 23.4375C7.42956 23.4375 2.8125 18.8204 2.8125 13.125Z" fill="#4B5563"/>
</svg>
